<?xml version="1.0" standalone="no"?>
<!DOCTYPE svg PUBLIC "-//W3C//DTD SVG 1.1//EN" "http://www.w3.org/Graphics/SVG/1.1/DTD/svg11.dtd" >
<svg xmlns="http://www.w3.org/2000/svg">
<metadata>
This is a custom SVG webfont generated by Font Squirrel.
Copyright   : Created by Phil Steinschneider philipspressroomcom Inspired by the original Blade Runner movie font Blade Runner is a trademark of the Blade Runner Partnership All rights reserved
</metadata>
<defs>
<font id="BladeRunnerMovieFontRegular" horiz-adv-x="1498" >
<font-face units-per-em="2048" ascent="1638" descent="-410" />
<missing-glyph horiz-adv-x="582" />
<glyph unicode=" "  horiz-adv-x="582" />
<glyph unicode="&#x09;" horiz-adv-x="582" />
<glyph unicode="&#xa0;" horiz-adv-x="582" />
<glyph unicode="!" horiz-adv-x="1060" d="M199 -3l98 357h496l-98 -357h-496zM358 578l231 837h497l-232 -837h-496zM1086 1415z" />
<glyph unicode="&#x22;" horiz-adv-x="1034" d="M155 879l216 561h363l-217 -561h-362zM617 879l217 561h363l-217 -561h-363z" />
<glyph unicode="#" horiz-adv-x="1370" d="M279 405l1 148l180 -1l105 362l-183 -1v149l225 1l129 431l122 -1l-128 -431l259 -2l123 428l124 -1l-124 -428l163 -3l1 -143l-206 -3l-105 -362l209 -1l1 -150l-253 2l-123 -425l-124 1l123 425l-258 3l-123 -425l-123 1l123 425zM583 551l257 1l106 359l-258 2z" />
<glyph unicode="$" horiz-adv-x="1672" d="M102 -6l117 402l788 -3q107 17 107 103q0 48 -11 65q-14 21 -67 41l-404 -3q-132 -1 -199 87q-61 79 -61 215q0 29 3 61l933 -2q192 -26 267 -113q13 -16 71 -85q38 -100 38 -229q0 -40 -4 -84q-9 -99 -53 -176q-118 -206 -376 -278l-143 -1l-88 -340h-504l90 342z M405 1069h1358l94 348h-346l107 351l-500 -3l-114 -347q17 0 -19 0q-35 -1 -87 -1h-70q-138 0 -267 -117q-114 -103 -156 -231zM675 608zM1511 1417z" />
<glyph unicode="%" horiz-adv-x="2081" d="M303 1073q0 159 105.5 265t264.5 106q156 0 264.5 -107.5t108.5 -263.5q0 -155 -109 -264t-264 -109q-158 0 -264 107t-106 266zM518 1071q0 -66 44.5 -111t110.5 -45q65 0 110.5 46t45.5 110q0 66 -44.5 112t-111.5 46q-66 0 -110.5 -45.5t-44.5 -112.5zM608 -29 l854 1473h160l-854 -1473h-160zM1189 344q0 159 106 266t265 107q156 0 264.5 -108.5t108.5 -264.5q0 -155 -109 -264t-264 -109q-159 0 -265 107t-106 266zM1405 344q0 -66 44.5 -111t110.5 -45q65 0 110.5 46t45.5 110q0 65 -45 110.5t-111 45.5t-110.5 -45t-44.5 -111z " />
<glyph unicode="&#x26;" horiz-adv-x="1374" d="M-6 397q0 161 114 277q84 85 259 168l-48 84q-65 114 -65 207q0 157 114 252q107 88 267 88q163 0 270 -84q117 -91 117 -250q0 -241 -297 -381l170 -275q79 113 100 213h240q-50 -246 -207 -422l170 -274h-313l-56 90q-185 -123 -397 -123q-192 0 -315 119.5t-123 310.5 zM281 416q0 -89 52 -144t140 -55q103 0 229 78l-215 350q-206 -92 -206 -229zM512 1151q0 -55 75 -170q5 -8 18 -26q159 79 159 198q0 111 -123 111q-129 0 -129 -113z" />
<glyph unicode="'" horiz-adv-x="624" d="M180 879l216 561h363l-217 -561h-362z" />
<glyph unicode="(" horiz-adv-x="669" d="M99 181q0 129 35 265l129 500h239l-126 -520q-35 -144 -35 -275q0 -99 22 -169q51 -161 218 -245q-372 0 -460 275q-22 69 -22 169zM289 1065h242q67 312 186 537q-142 0 -271 -179q-115 -160 -157 -358z" />
<glyph unicode=")" horiz-adv-x="623" d="M-246 -263q347 22 434 311q67 221 209 898h241q-69 -295 -136 -562q-62 -249 -175 -392q-194 -247 -573 -255zM374 1604q80 -116 80 -263q0 -50 -13 -141q-14 -97 -17 -133h228q8 69 8 130q0 165 -59 271q-74 130 -227 136z" />
<glyph unicode="*" horiz-adv-x="1024" d="M123 1079l65 203l267 -96v287h200v-287l267 94l67 -203l-280 -76l190 -239l-172 -125l-172 252l-174 -248l-172 119l192 241z" />
<glyph unicode="+" horiz-adv-x="1123" d="M147 591l80 263h332l122 399h240l-123 -397l332 -3l-86 -256l-325 -4l-114 -401l-249 -1l122 400h-331z" />
<glyph unicode="," horiz-adv-x="566" d="M58 -336l32 106q161 8 214 230h-162l83 299h303l-80 -283q-48 -169 -130 -251q-95 -93 -260 -101z" />
<glyph unicode="-" horiz-adv-x="1137" d="M87 500l73 260h918l-73 -260h-918z" />
<glyph unicode="." horiz-adv-x="615" d="M103 0l85 299h312l-84 -299h-313z" />
<glyph unicode="/" horiz-adv-x="862" d="M204 -190l496 1701h137l-498 -1701h-135z" />
<glyph unicode="0" horiz-adv-x="1320" d="M80 351q0 -82 22 -137q50 -126 197 -177q83 -29 234 -37l55 -3q545 24 677 511q11 40 43 164l69 261l-468 3l-116 -435q-24 -91 -119 -95q-109 -5 -109 70q0 10 1 22l16 55l107 383h-477l-104 -386q-28 -104 -28 -199zM242 1073q39 122 143 223q118 114 243 114h192 l325 3q269 2 269 -279q0 -29 -3 -61h-1169z" />
<glyph unicode="1" horiz-adv-x="910" d="M88 -3l263 939h495l-263 -939h-495zM247 1073l220 340h504l-91 -340h-633z" />
<glyph unicode="2" horiz-adv-x="1350" d="M-27 -3l1180 3l98 348h-593q86 71 288 149q206 80 289 145q145 113 184 294h-517q1 -5 1 -11q0 -56 -214 -157q-314 -148 -444 -256q-251 -209 -272 -515zM266 1073h1169q0 128 -40 199q-79 141 -196 141h-501q-142 0 -273 -114q-118 -103 -159 -226z" />
<glyph unicode="3" horiz-adv-x="1353" d="M106 260q55 -263 345 -263h379q192 38 331 200t139 356q0 115 -60 187q116 99 166 196h-786l-98 -364h177q196 0 196 -83q0 -48 -51 -90q-42 -34 -96 -51q-47 -15 -92 -15q-86 0 -86 66q0 18 7 41h-459q-23 -128 -12 -180zM277 1073h1171q0 124 -40 199q-75 141 -198 141 h-502q-141 0 -272 -114q-116 -101 -159 -226z" />
<glyph unicode="4" horiz-adv-x="1413" d="M89 465l122 471h456l-31 -120h260l28 120h465l-254 -942l-468 3l135 471zM242 1070h462l95 337l-456 3zM958 1070h464l92 337h-462z" />
<glyph unicode="5" horiz-adv-x="1376" d="M85 260q55 -263 346 -263h403q91 15 199 83q94 60 137 115q106 137 128 314q3 23 3 47q0 121 -67 202q-78 102 -183 141q-101 37 -250 37h-557l-104 -361l548 -3q85 0 120 -9q75 -18 75 -77q0 -58 -42.5 -103.5t-100.5 -49.5q-44 -3 -68 -3q-119 0 -119 76q0 13 3 28 l-459 3q-22 -129 -12 -177zM149 1073l217 340h1108l-101 -340h-1224z" />
<glyph unicode="6" horiz-adv-x="1401" d="M98 294q0 213 156 642h464l-11 -44h280q329 0 329 -258q0 -97 -44 -240q-123 -400 -498 -397l-397 3q-279 2 -279 294zM285 1072q39 125 141 225q117 114 241 114h471q269 0 269 -278q0 -29 -4 -61h-1118zM594 447q0 -41 39 -51q18 -5 71 -2q96 5 122 95l3 6q4 21 4 37 q0 36 -29 45q-11 4 -79 6q-98 4 -125 -91l3 18l-3 -25q-6 -22 -6 -38z" />
<glyph unicode="7" horiz-adv-x="1120" d="M114 1073l217 340h942l-94 -340h-1065zM172 -3q56 246 165 461q161 318 345 478h465q-106 -106 -208 -253q-98 -140 -137 -225q-62 -132 -82 -185q-50 -129 -80 -276h-468z" />
<glyph unicode="8" horiz-adv-x="1308" d="M53 320q0 -247 228 -323h501q198 40 338 215q132 165 132 342q0 111 -60 189q118 92 170 193h-1141q-3 -42 2 -68q14 -77 55 -122q-225 -190 -225 -426zM235 1073h1168q0 124 -40 199q-75 141 -195 141h-505q-141 0 -271 -114q-118 -103 -157 -226zM488 412q0 40 41 80 q79 77 196 77q122 0 122 -79q0 -95 -144 -142q-46 -15 -93 -15q-122 0 -122 79z" />
<glyph unicode="9" horiz-adv-x="1319" d="M78 339q0 -76 23 -134q51 -128 167 -174q73 -29 203 -31l199 -3q148 12 214 36q118 43 223 162q166 189 287 741h-1168q-8 -69 -8 -74q0 -276 326 -272l275 3l-27 -98q-24 -88 -119 -95q-109 -8 -109 69q0 15 2 23l6 25h-474q-20 -108 -20 -178zM241 1073q39 125 143 226 q117 114 243 114h517q269 0 269 -279q0 -29 -3 -61h-1169z" />
<glyph unicode=":" horiz-adv-x="776" d="M113 0l83 299h311l-83 -299h-311zM329 778l82 297h312l-83 -297h-311z" />
<glyph unicode=";" horiz-adv-x="827" d="M88 -338l36 106q162 8 220 232h-164l89 295h303l-83 -281q-100 -337 -401 -352zM390 778l81 297h312l-82 -297h-311z" />
<glyph unicode="&#x3c;" horiz-adv-x="1706" d="M264 512v199l1178 483v-219l-893 -365l893 -364v-219z" />
<glyph unicode="=" horiz-adv-x="1243" d="M205 427l74 258h918l-74 -258h-918zM316 793l73 260h918l-73 -260h-918z" />
<glyph unicode="&#x3e;" horiz-adv-x="1706" d="M264 27v219l895 364l-895 365v219l1178 -483v-199z" />
<glyph unicode="?" horiz-adv-x="1405" d="M235 1000q111 475 671 475q205 0 352 -75q188 -96 188 -281q0 -24 -2 -41q-10 -85 -42 -133q-14 -21 -93 -100q-35 -26 -103 -53q-42 -16 -153 -60q-24 -10 -81 -51q-8 -9 -30.5 -33t-30.5 -69l-401 2q63 155 116 220q75 91 214 139q165 57 175 140q7 59 -49 94 q-46 29 -109 29q-175 0 -233 -203h-389zM319 0l116 355h449l-110 -355h-455z" />
<glyph unicode="@" horiz-adv-x="2048" d="M90 520q0 341 207 594q301 367 819 367q349 0 576 -174q268 -206 268 -543q0 -339 -254 -543q-143 -115 -324 -115q-211 0 -215 166q-107 -163 -297 -163q-323 0 -323 340q0 225 127 387q138 176 356 176q159 0 236 -131l53 98h178l-147 -598q-7 -28 -7 -41q0 -70 95 -70 q80 0 161 76q175 165 175 422q0 261 -208 413q-186 136 -456 136q-282 0 -483 -135q-353 -238 -353 -660q0 -325 222 -506q206 -168 538 -168q331 0 604 191l82 -117q-307 -231 -682 -231q-390 0 -639 192q-309 238 -309 637zM760 444q0 -188 158 -188q92 0 160 70 q61 62 85 157l54 217q-27 166 -175 166q-134 0 -215 -151q-67 -125 -67 -271z" />
<glyph unicode="A" horiz-adv-x="1071" d="M-335 579l842 1l146 -583h514l-197 939h-997zM50 1073h893l-76 340h-514z" />
<glyph unicode="B" horiz-adv-x="1611" d="M17 3l272 931h1337q0 -132 -159 -193q59 -99 63 -107q24 -51 24 -131q0 -8 -2 -41q-12 -201 -162 -327q-119 -100 -255 -134zM169 1070l295 349l911 1q268 0 268 -289q0 -29 -3 -61h-1471zM580 377h318q29 0 56 22.5t27 50.5q0 63 -43 70h-318z" />
<glyph unicode="C" horiz-adv-x="1474" d="M84 395q2 23 9 82l119 456l508 3l-147 -453q7 -27 13 -54q19 -38 76 -50h627l-107 -382h-649q-338 0 -431 217q-21 48 -21 123q0 27 3 58zM252 1070q38 126 142 228q117 115 243 115h942l-101 -343h-1226z" />
<glyph unicode="D" horiz-adv-x="1575" d="M16 -3l268 939h505l-170 -572q48 -19 103 -19q103 0 213 62q179 101 234 289q29 98 33 240h437q0 -361 -140 -566q-112 -164 -205 -234q-185 -139 -464 -139h-814zM194 1070l220 343h826q134 0 250 -104q118 -107 123 -239h-1419z" />
<glyph unicode="E" horiz-adv-x="1473" d="M-4 3l250 933h1208l-99 -373h-664l-55 -193h661l-99 -367h-1202zM162 1070l220 343h1205l-91 -343h-1334z" />
<glyph unicode="F" horiz-adv-x="1393" d="M-26 3l260 933h1202l-113 -374h-658l-153 -559h-538zM136 1070l218 343h1208l-98 -343h-1328z" />
<glyph unicode="G" horiz-adv-x="1620" d="M107 354q0 56 21 132l127 450h483l-121 -422q-10 -35 -10 -52q0 -40 40 -52h291q61 15 83 104l3 24l-303 -3l217 349h648l-109 -400q-45 -164 -138 -273q-178 -208 -517 -208h-245q-358 0 -437 202q-32 83 -33 149zM286 1072q36 119 143 225q117 116 243 116h1035 l-85 -341h-1336z" />
<glyph unicode="H" horiz-adv-x="1652" d="M18 3l259 933h1361l-253 -936h-496l147 566h-358l-159 -563h-501zM324 1070l89 344l495 -1l-92 -343h-492zM1180 1070l95 343h495l-91 -343h-499z" />
<glyph unicode="I" horiz-adv-x="743" d="M-10 3l260 933h495l-257 -933h-498zM282 1070l98 343h489l-94 -343h-493z" />
<glyph unicode="J" horiz-adv-x="1578" d="M77 334q0 87 26 210h474l-33 -119q-11 -40 -11 -51q0 -41 41 -53h291q57 15 82 104l144 511h471q-84 -333 -117 -432q-66 -200 -155 -296q-189 -205 -518 -205h-242q-349 0 -433 205q-20 49 -20 126zM1122 1070l95 343h474l-95 -343h-474z" />
<glyph unicode="K" horiz-adv-x="1736" d="M14 3l270 933h1125l-274 -276l338 -657h-511l-289 569l-164 -569h-495zM322 1070l98 343h486l-98 -343h-486zM940 1073l333 337h587l-327 -337h-593z" />
<glyph unicode="L" horiz-adv-x="2244" d="M-13 -1h933l281 358h-630l168 587h-501zM265 1075l98 334l502 3l-98 -337h-502zM834 561l841 -3l138 -562h514l-199 942h-997zM1213 1072h893l-73 337h-517z" />
<glyph unicode="M" horiz-adv-x="1875" d="M1 3l261 933h1624l-264 -933h-511l235 838l-346 -279l-287 279l-238 -838h-474zM297 1070l95 343h480l284 -273l349 273h510l-97 -343h-1621z" />
<glyph unicode="N" horiz-adv-x="1594" d="M20 0l256 936h1355l-249 -933h-514l158 566l-300 272l-238 -841h-468zM317 1072l97 341h465l303 -288l73 288h505l-101 -341h-1342z" />
<glyph unicode="O" d="M95 347q0 98 30 208l104 379h477l-141 -498q-10 -35 -10 -53q0 -40 37 -51h297q57 15 83 104l146 498l468 3l-9 -32q-31 -107 -112 -388q-50 -179 -157 -299q-193 -217 -517 -217h-244q-195 0 -311 73q-141 89 -141 273zM265 1070q41 138 140 234q121 117 249 117h696 q264 0 264 -280v-71h-1349z" />
<glyph unicode="P" horiz-adv-x="1711" d="M84 3l256 930l1459 3q-8 -52 -40 -119q-45 -94 -152 -157q-160 -94 -426 -94h-471l-158 -563h-468zM260 1072l212 341h1156q47 0 96 -33t72 -77q39 -73 39 -231h-1575z" />
<glyph unicode="Q" horiz-adv-x="1558" d="M83 350q0 98 28 203l102 383h481l-143 -505q-10 -35 -10 -51q0 -41 41 -53h195l-171 196h376l110 413h471l-93 -376q-53 -215 -173 -346q-4 -5 -27 -22l162 -195h-370l-40 46q-124 -43 -245 -43h-241q-347 0 -432 214q-21 53 -21 136zM245 1073q39 124 142 225 q118 115 243 115h701q269 0 269 -280q0 -29 -3 -60h-1352z" />
<glyph unicode="R" horiz-adv-x="1630" d="M5 3l275 933h1468q-17 -125 -143 -235q-59 -51 -96 -65q47 -73 47 -154q0 -48 -14 -134q-9 -54 -108 -345h-459l164 563h-483l-174 -563h-477zM185 1073l217 340h1165q47 0 97 -34q47 -32 71 -76q37 -68 37 -230h-1587z" />
<glyph unicode="S" horiz-adv-x="1627" d="M26 3l109 388l774 -3q100 11 100 98q0 50 -10 66q-13 21 -66 38h-395q-128 0 -188.5 64.5t-60.5 210.5v71h905q166 -22 224 -66q8 -7 111 -121q38 -98 38 -223q0 -42 -4 -83q-16 -163 -165 -312q-83 -83 -254 -131zM324 1073q41 125 153 226q126 114 260 114h1006 l-91 -340h-1328z" />
<glyph unicode="T" horiz-adv-x="1341" d="M124 1073l217 340h1242l-95 -340h-1364zM335 3l254 933h463l-249 -933h-468z" />
<glyph unicode="U" horiz-adv-x="1513" d="M54 325q0 34 8 63l151 548l455 1l-145 -509q-10 -35 -10 -51q0 -41 41 -53h327l173 612h467l-259 -935l-749 -1q-352 0 -436 211q-23 58 -23 114zM242 1070l97 336h458l-93 -336h-462zM1086 1070l95 337l468 -1l-95 -336h-468z" />
<glyph unicode="V" horiz-adv-x="1887" d="M205 1413h514l82 -340h-526zM300 938h529l76 -314l224 312l663 2l-784 -935h-514zM1248 1073l244 340l679 -3l-263 -337h-660z" />
<glyph unicode="W" horiz-adv-x="1855" d="M-1 1l260 935h502l-104 -344l348 278l282 -278l101 344h480l-260 -935l-476 2l-292 264l-350 -264zM290 1071l98 343h501l-95 -343h-504zM1424 1071l98 340h471l-85 -340h-484z" />
<glyph unicode="X" horiz-adv-x="1514" d="M-186 0l719 795l-30 138l838 3l-248 -273l139 -662l-532 2l-39 171l-153 -173zM395 1407h514l40 -159l150 162l699 1l-329 -340l-993 2z" />
<glyph unicode="Y" horiz-adv-x="1341" d="M157 3l189 668l-60 261l838 3l-249 -267l-183 -666zM178 1412h514l39 -159l151 166l681 -2l-310 -347h-1000z" />
<glyph unicode="Z" horiz-adv-x="1430" d="M-70 3l110 379l802 554l588 1l-763 -558h600l-104 -376h-1233zM95 1073l221 340l1227 2l-87 -342h-1361z" />
<glyph unicode="[" horiz-adv-x="862" d="M63 -423l374 1359h143l-330 -1203l198 1l-47 -158zM473 1073h140l65 251l199 -3l50 149l-356 -4z" />
<glyph unicode="\" horiz-adv-x="963" d="M218 1491l180 2l348 -1516l-180 -2z" />
<glyph unicode="]" horiz-adv-x="771" d="M3 -422h331l358 1356h-130l-329 -1200h-194zM459 1304h193l-63 -232l129 1l94 379h-323z" />
<glyph unicode="^" horiz-adv-x="2048" d="M416 899l481 561h252l481 -561h-235l-371 371l-373 -371h-235z" />
<glyph unicode="_" horiz-adv-x="1024" d="M0 -279h1024v-204h-1024v204z" />
<glyph unicode="`" horiz-adv-x="1024" d="M334 1589h252l168 -370h-129z" />
<glyph unicode="a" horiz-adv-x="1573" d="M-316 3l733 936h1022l200 -936h-514l-139 557l-290 -1l-412 -557zM527 1070l294 343h517l73 -343h-884z" />
<glyph unicode="b" horiz-adv-x="1611" d="M17 3l272 931h1337q0 -132 -159 -193q59 -99 63 -107q24 -51 24 -131q0 -8 -2 -41q-12 -201 -162 -327q-119 -100 -255 -134zM169 1070l295 349l911 1q268 0 268 -289q0 -29 -3 -61h-1471zM580 377h318q29 0 56 22.5t27 50.5q0 63 -43 70h-318z" />
<glyph unicode="c" horiz-adv-x="1474" d="M84 395q2 23 9 82l119 456l508 3l-147 -453q7 -27 13 -54q19 -38 76 -50h627l-107 -382h-649q-338 0 -431 217q-21 48 -21 123q0 27 3 58zM252 1070q38 126 142 228q117 115 243 115h942l-101 -343h-1226z" />
<glyph unicode="d" horiz-adv-x="1575" d="M16 -3l268 939h505l-170 -572q48 -19 103 -19q103 0 213 62q179 101 234 289q29 98 33 240h437q0 -361 -140 -566q-112 -164 -205 -234q-185 -139 -464 -139h-814zM194 1070l220 343h826q134 0 250 -104q118 -107 123 -239h-1419z" />
<glyph unicode="e" horiz-adv-x="1473" d="M-4 3l250 933h1208l-99 -373h-664l-55 -193h661l-99 -367h-1202zM162 1070l220 343h1205l-91 -343h-1334z" />
<glyph unicode="f" horiz-adv-x="1393" d="M-26 3l260 933h1202l-113 -374h-658l-153 -559h-538zM136 1070l218 343h1208l-98 -343h-1328z" />
<glyph unicode="g" horiz-adv-x="1620" d="M107 354q0 56 21 132l127 450h483l-121 -422q-10 -35 -10 -52q0 -40 40 -52h291q61 15 83 104l3 24l-303 -3l217 349h648l-109 -400q-45 -164 -138 -273q-178 -208 -517 -208h-245q-358 0 -437 202q-32 83 -33 149zM286 1072q36 119 143 225q117 116 243 116h1035 l-85 -341h-1336z" />
<glyph unicode="h" horiz-adv-x="1652" d="M18 3l259 933h1361l-253 -936h-496l147 566h-358l-159 -563h-501zM324 1070l89 344l495 -1l-92 -343h-492zM1180 1070l95 343h495l-91 -343h-499z" />
<glyph unicode="i" horiz-adv-x="743" d="M-10 3l260 933h495l-257 -933h-498zM282 1070l98 343h489l-94 -343h-493z" />
<glyph unicode="j" horiz-adv-x="1578" d="M77 334q0 87 26 210h474l-33 -119q-11 -40 -11 -51q0 -41 41 -53h291q57 15 82 104l144 511h471q-84 -333 -117 -432q-66 -200 -155 -296q-189 -205 -518 -205h-242q-349 0 -433 205q-20 49 -20 126zM1122 1070l95 343h474l-95 -343h-474z" />
<glyph unicode="k" horiz-adv-x="1736" d="M14 3l270 933h1125l-274 -276l338 -657h-511l-289 569l-164 -569h-495zM322 1070l98 343h486l-98 -343h-486zM940 1073l333 337h587l-327 -337h-593z" />
<glyph unicode="l" horiz-adv-x="1230" d="M-12 3l264 933h497l-164 -583l685 -2l-286 -348h-996zM287 1072l94 338l503 3l-101 -341h-496z" />
<glyph unicode="m" horiz-adv-x="1875" d="M1 3l261 933h1624l-264 -933h-511l235 838l-346 -279l-287 279l-238 -838h-474zM297 1070l95 343h480l284 -273l349 273h510l-97 -343h-1621z" />
<glyph unicode="n" horiz-adv-x="1594" d="M20 0l256 936h1355l-249 -933h-514l158 566l-300 272l-238 -841h-468zM317 1072l97 341h465l303 -288l73 288h505l-101 -341h-1342z" />
<glyph unicode="o" d="M95 347q0 98 30 208l104 379h477l-141 -498q-10 -35 -10 -53q0 -40 37 -51h297q57 15 83 104l146 498l468 3l-9 -32q-31 -107 -112 -388q-50 -179 -157 -299q-193 -217 -517 -217h-244q-195 0 -311 73q-141 89 -141 273zM265 1070q41 138 140 234q121 117 249 117h696 q264 0 264 -280v-71h-1349z" />
<glyph unicode="p" horiz-adv-x="1711" d="M84 3l256 930l1459 3q-8 -52 -40 -119q-45 -94 -152 -157q-160 -94 -426 -94h-471l-158 -563h-468zM260 1072l212 341h1156q47 0 96 -33t72 -77q39 -73 39 -231h-1575z" />
<glyph unicode="q" horiz-adv-x="1558" d="M83 350q0 98 28 203l102 383h481l-143 -505q-10 -35 -10 -51q0 -41 41 -53h195l-171 196h376l110 413h471l-93 -376q-53 -215 -173 -346q-4 -5 -27 -22l162 -195h-370l-40 46q-124 -43 -245 -43h-241q-347 0 -432 214q-21 53 -21 136zM245 1073q39 124 142 225 q118 115 243 115h701q269 0 269 -280q0 -29 -3 -60h-1352z" />
<glyph unicode="r" horiz-adv-x="1682" d="M5 3l275 933h1468q-17 -125 -143 -235q-59 -51 -96 -65q47 -73 47 -154q0 -48 -14 -134q-9 -54 -108 -345h-459l164 563h-483l-174 -563h-477zM185 1073l217 340h1165q47 0 97 -34q47 -32 71 -76q37 -68 37 -230h-1587z" />
<glyph unicode="s" horiz-adv-x="1627" d="M26 3l109 388l774 -3q100 11 100 98q0 50 -10 66q-13 21 -66 38h-395q-128 0 -188.5 64.5t-60.5 210.5v71h905q166 -22 224 -66q8 -7 111 -121q38 -98 38 -223q0 -42 -4 -83q-16 -163 -165 -312q-83 -83 -254 -131zM324 1073q41 125 153 226q126 114 260 114h1006 l-91 -340h-1328z" />
<glyph unicode="t" horiz-adv-x="1474" d="M124 1073l217 340h1242l-95 -340h-1364zM335 3l254 933h463l-249 -933h-468z" />
<glyph unicode="u" horiz-adv-x="1513" d="M54 325q0 34 8 63l151 548l455 1l-145 -509q-10 -35 -10 -51q0 -41 41 -53h327l173 612h467l-259 -935l-749 -1q-352 0 -436 211q-23 58 -23 114zM242 1070l97 336h458l-93 -336h-462zM1086 1070l95 337l468 -1l-95 -336h-468z" />
<glyph unicode="v" horiz-adv-x="1887" d="M205 1413h514l82 -340h-526zM300 938h529l76 -314l224 312l663 2l-784 -935h-514zM1248 1073l244 340l679 -3l-263 -337h-660z" />
<glyph unicode="w" horiz-adv-x="1855" d="M-1 1l260 935h502l-104 -344l348 278l282 -278l101 344h480l-260 -935l-476 2l-292 264l-350 -264zM290 1071l98 343h501l-95 -343h-504zM1424 1071l98 340h471l-85 -340h-484z" />
<glyph unicode="x" horiz-adv-x="1514" d="M-186 0l719 795l-30 138l838 3l-248 -273l139 -662l-532 2l-39 171l-153 -173zM395 1407h514l40 -159l150 162l699 1l-329 -340l-993 2z" />
<glyph unicode="y" horiz-adv-x="1297" d="M157 3l189 668l-60 261l838 3l-249 -267l-183 -666zM178 1412h514l39 -159l151 166l681 -2l-310 -347h-1000z" />
<glyph unicode="z" horiz-adv-x="1430" d="M-70 3l110 379l802 554l588 1l-763 -558h600l-104 -376h-1233zM95 1073l221 340l1227 2l-87 -342h-1361z" />
<glyph unicode="{" horiz-adv-x="712" d="M93 468l41 163q121 -2 188 130q51 100 73 178h130q-26 -89 -52 -152q-71 -171 -223 -243q97 -61 98 -201q1 -87 -42 -255q-55 -216 -58 -259q-4 -58 25 -80q24 -18 84 -20l26 -1l-40 -157l-46 1q-135 3 -175 88q-31 67 -8 205q3 19 50 209q35 143 41 185q4 29 4 59 q0 141 -116 150zM422 1072h136v2l16 63q28 112 55 147q43 57 138 53l26 -1l40 157l-46 1q-84 2 -132 -16q-117 -43 -183 -225q-14 -37 -50 -181z" />
<glyph unicode="|" horiz-adv-x="1024" d="M410 -483v2048h206v-2048h-206z" />
<glyph unicode="}" horiz-adv-x="493" d="M-187 -431h46q80 0 132 21q115 47 178 231q17 51 61 248q36 164 75 240q70 136 186 140l38 163q-121 2 -121 151q0 47 29 177h-139q-34 -150 -30 -215q7 -129 105 -195q-144 -65 -216 -245q-29 -72 -94 -353q-26 -112 -51 -148q-41 -58 -137 -58h-26zM220 1334l36 157h46 q200 0 200 -192q0 -41 -10 -91q-7 -35 -29 -134h-137q31 134 32 165q3 58 -27 79q-24 16 -85 16h-26z" />
<glyph unicode="~" horiz-adv-x="1706" d="M178 418v221q213 143 387 143q117 0 291 -58q3 -1 4 -1l55 -19q159 -55 240 -55q163 0 375 154v-221q-202 -138 -379 -138q-93 0 -184 31q-18 6 -71 25q-217 75 -333 75q-165 0 -385 -157z" />
<glyph unicode="&#xa1;" horiz-adv-x="676" d="M57 0l260 1020h154l-100 -1020h-314zM262 1174l47 299h307l-49 -299h-305z" />
<glyph unicode="&#xa2;" horiz-adv-x="1161" d="M59 481q0 265 140 445q153 196 411 196q44 0 92 -2l58 191h114l-61 -211q279 -87 283 -389h-289q0 102 -76 151l-201 -653q18 -2 35 -2q168 0 217 184h289q-36 -205 -178 -316q-137 -108 -348 -108q-36 0 -76 6l-61 -206h-117l67 229q-151 51 -229 190q-70 125 -70 295z M348 463q0 -168 94 -223l199 647h-18q-139 0 -215 -151q-60 -120 -60 -273z" />
<glyph unicode="&#xa3;" horiz-adv-x="1161" d="M90 174q211 143 211 348q0 32 -6 98l-193 1l25 147h139q-22 116 -22 217q0 214 123.5 338.5t337.5 124.5q197 0 312 -83q132 -94 132 -284q0 -54 -8 -110h-260q10 64 10 94q0 170 -170 170q-195 0 -195 -258q0 -89 21 -209h313l-20 -147l-283 -1q2 -10 2 -36 q0 -185 -180 -359q99 31 174 31q50 0 146.5 -24.5t146.5 -24.5q115 0 203 88l-56 -262q-99 -68 -200 -68q-74 0 -215.5 44t-215.5 44q-123 0 -235 -88z" />
<glyph unicode="&#xa4;" horiz-adv-x="1241" d="M68 438l202 205q-75 107 -75 242q0 136 75 241l-202 205l104 107l205 -203q108 78 244 78q139 0 247 -78l203 203l105 -107l-203 -205q76 -106 76 -241q0 -132 -76 -242l203 -205l-105 -104l-203 203q-105 -78 -245 -78q-143 0 -246 78l-205 -203zM346 885 q0 -117 80 -196t197 -79q116 0 196 79.5t80 195.5q0 115 -80.5 195.5t-195.5 80.5t-196 -80.5t-81 -195.5z" />
<glyph unicode="&#xa5;" horiz-adv-x="1245" d="M-6 553l20 111h404l-51 129h-330l20 110h265l-199 492h293l225 -592l328 592h303l-295 -492h274l-20 -110h-322l-80 -129h379l-18 -111h-424l-14 -25l-84 -528h-293l96 537l-8 16h-469z" />
<glyph unicode="&#xa6;" horiz-adv-x="1024" d="M410 -350v758h206v-758h-206zM410 674v758h206v-758h-206z" />
<glyph unicode="&#xa7;" horiz-adv-x="1024" d="M14 86v23l230 -1q2 -133 143 -133q58 0 98 26q47 30 47 85q0 62 -94 137l-223 178q-166 133 -166 299q0 195 236 252q-82 98 -82 207q0 151 109 241q101 85 255 85q361 0 361 -311v-29h-228q0 141 -135 141q-127 0 -127 -104q0 -64 148 -178l162 -125q188 -145 188 -318 q0 -105 -71 -173q-67 -65 -173 -77q82 -90 82 -209q0 -155 -120 -249q-110 -86 -269 -86q-371 0 -371 319zM291 729q0 -69 112 -156l187 -145q98 32 98 107q0 73 -190 221q-47 37 -99 78q-108 -23 -108 -105z" />
<glyph unicode="&#xa8;" horiz-adv-x="476" d="M50 1270v205h154v-205h-154zM356 1270v205h154v-205h-154z" />
<glyph unicode="&#xa9;" horiz-adv-x="1706" d="M111 733q0 312 215 529t526 217q316 0 530.5 -215t214.5 -531q0 -310 -215 -520q-228 -223 -530 -223q-306 0 -523.5 218.5t-217.5 524.5zM233 735q0 -259 181 -439.5t440 -180.5q261 0 441 179.5t180 440.5q0 262 -179.5 441.5t-441.5 179.5t-441.5 -179.5 t-179.5 -441.5zM453 729q0 199 100 320q108 131 303 131q143 0 240 -69q108 -76 116 -214h-188q-17 147 -172 147q-106 0 -157 -108q-38 -81 -38 -201q0 -301 203 -301q151 0 170 161l193 1q-8 -147 -117 -230q-100 -77 -252 -77q-195 0 -301 125q-100 117 -100 315z" />
<glyph unicode="&#xaa;" horiz-adv-x="1573" d="M-316 3l733 936h1022l200 -936h-514l-139 557l-290 -1l-412 -557zM527 1070l294 343h517l73 -343h-884z" />
<glyph unicode="&#xab;" horiz-adv-x="913" d="M18 453l45 213l398 286l-49 -247l-238 -166l166 -189l-43 -213zM446 453l43 213l402 286l-53 -247l-238 -166l168 -189l-43 -213z" />
<glyph unicode="&#xad;" horiz-adv-x="1137" d="M87 500l73 260h918l-73 -260h-918z" />
<glyph unicode="&#xae;" horiz-adv-x="1706" d="M111 733q0 200 101.5 377t274.5 275q167 94 365 94q313 0 534 -224q211 -214 211 -522q0 -312 -216.5 -527.5t-528.5 -215.5q-308 0 -524.5 217.5t-216.5 525.5zM233 735q0 -257 181 -439.5t438 -182.5q256 0 439.5 177.5t183.5 432.5q0 267 -176 449q-179 184 -445 184 q-256 0 -432 -176q-189 -189 -189 -445zM545 336v825h323q353 0 353 -237q0 -174 -181 -219l185 -369h-224l-157 338h-99v-338h-200zM745 795h99q170 0 170 116q0 123 -180 123h-89v-239z" />
<glyph unicode="&#xb1;" horiz-adv-x="976" d="M99 -3l73 260h918l-73 -260h-918zM262 659l81 263h332l96 307l239 -1l-96 -304l332 -3l-86 -256l-325 -4l-77 -277l-249 -1l85 276h-332z" />
<glyph unicode="&#xb2;" horiz-adv-x="496" d="M24 719l641 1l53 189h-322q46 39 157 82t156 78q74 58 97 165h-281q1 -3 1 -6q0 -37 -113 -90q-169 -80 -242 -140q-136 -113 -147 -279zM183 1303h635q0 69 -22 108q-44 77 -106 77h-272q-75 0 -143 -56t-92 -129z" />
<glyph unicode="&#xb3;" horiz-adv-x="494" d="M28 850q30 -144 189 -144h207q105 21 181 110t76 195q0 62 -33 102q61 52 92 112h-430l-55 -204h97q107 0 107 -46q0 -51 -80 -77q-25 -8 -50 -8q-47 0 -47 36q0 10 3 23h-251q-12 -71 -6 -99zM121 1295h641q0 68 -22 109q-41 77 -108 77h-275q-75 0 -145 -57 q-66 -55 -91 -129z" />
<glyph unicode="&#xb9;" horiz-adv-x="363" d="M86 1174v123q127 50 214 187h89v-751h-119v554q-84 -81 -184 -113z" />
<glyph unicode="&#xba;" horiz-adv-x="537" d="M37 1111q0 152 58 254q72 126 211 126q138 0 210 -125q59 -102 59 -251q0 -180 -83 -286q-69 -89 -186 -89q-138 0 -210 122q-59 100 -59 249zM159 1114q0 -242 148 -242q147 0 147 244q0 242 -148 242q-147 0 -147 -244z" />
<glyph unicode="&#xbc;" horiz-adv-x="1480" d="M103 797l124 450h235l-124 -450h-235zM179 1308l104 161h239l-43 -161h-300zM444 -183l496 1701h137l-498 -1701h-135zM825 249l67 254h243l-18 -67h139l16 67h249l-137 -506l-250 2l72 251zM907 572h246l51 180l-243 1zM1289 572h248l49 180h-247z" />
<glyph unicode="&#xbd;" horiz-adv-x="1451" d="M103 797l124 450h235l-124 -450h-235zM179 1308l104 161h239l-43 -161h-300zM457 -183l496 1701h137l-498 -1701h-135zM849 -3l569 1l48 168h-287q42 35 140.5 73t138.5 69q65 51 86 146h-250q1 -2 1 -5q0 -33 -101 -80q-149 -70 -214 -124q-121 -101 -131 -248zM990 516 h564q0 62 -19 96q-38 68 -95 68h-241q-67 0 -127 -49.5t-82 -114.5z" />
<glyph unicode="&#xbe;" horiz-adv-x="1640" d="M92 851q30 -146 188 -146h206q105 21 180 111t75 197q0 64 -33 104q61 53 92 114h-427l-55 -207h97q106 0 106 -46q0 -51 -80 -78q-27 -9 -50 -9q-47 0 -47 37q0 10 4 23h-249q-13 -71 -7 -100zM185 1302h636q0 69 -21 110q-40 78 -108 78h-273q-75 0 -144 -59 q-65 -55 -90 -129zM583 -190l496 1701h137l-498 -1701h-135zM947 267l71 271h259l-19 -71h147l18 71h264l-146 -539l-266 2l77 268zM1034 611h262l54 192l-259 1zM1441 611h263l53 192h-263z" />
<glyph unicode="&#xc0;" horiz-adv-x="1071" d="M278 1913h252l168 -370h-129zM-335 579l842 1l146 -583h514l-197 939h-997zM50 1073h893l-76 340h-514z" />
<glyph unicode="&#xc2;" horiz-adv-x="1071" d="M26 1543l481 561h252l481 -561h-235l-371 371l-373 -371h-235zM-335 579l842 1l146 -583h514l-197 939h-997zM50 1073h893l-76 340h-514z" />
<glyph unicode="&#xc3;" horiz-adv-x="1071" d="M-9 1543v221q213 143 387 143q117 0 291 -58q3 -1 4 -1l55 -19q159 -55 240 -55q163 0 375 154v-221q-202 -138 -379 -138q-93 0 -184 31q-18 6 -71 25q-217 75 -333 75q-165 0 -385 -157zM-335 579l842 1l146 -583h514l-197 939h-997zM50 1073h893l-76 340h-514z" />
<glyph unicode="&#xc4;" horiz-adv-x="1071" d="M421 1543v205h154v-205h-154zM727 1543v205h154v-205h-154zM-335 579l842 1l146 -583h514l-197 939h-997zM50 1073h893l-76 340h-514z" />
<glyph unicode="&#xc8;" horiz-adv-x="1034" />
<glyph unicode="&#xc9;" horiz-adv-x="492" />
<glyph unicode="&#xca;" horiz-adv-x="1473" d="M401 1543l481 561h252l481 -561h-235l-371 371l-373 -371h-235zM-4 3l250 933h1208l-99 -373h-664l-55 -193h661l-99 -367h-1202zM162 1070l220 343h1205l-91 -343h-1334z" />
<glyph unicode="&#xcb;" horiz-adv-x="1473" d="M796 1543v205h154v-205h-154zM1102 1543v205h154v-205h-154zM-4 3l250 933h1208l-99 -373h-664l-55 -193h661l-99 -367h-1202zM162 1070l220 343h1205l-91 -343h-1334z" />
<glyph unicode="&#xcc;" horiz-adv-x="743" d="M292 1913h252l168 -370h-129zM-10 3l260 933h495l-257 -933h-498zM282 1070l98 343h489l-94 -343h-493z" />
<glyph unicode="&#xce;" horiz-adv-x="743" d="M41 1543l481 561h252l481 -561h-235l-371 371l-373 -371h-235zM-10 3l260 933h495l-257 -933h-498zM282 1070l98 343h489l-94 -343h-493z" />
<glyph unicode="&#xcf;" horiz-adv-x="743" d="M436 1543v205h154v-205h-154zM742 1543v205h154v-205h-154zM-10 3l260 933h495l-257 -933h-498zM282 1070l98 343h489l-94 -343h-493z" />
<glyph unicode="&#xd1;" horiz-adv-x="1594" d="M468 1543v221q213 143 387 143q117 0 291 -58q3 -1 4 -1l55 -19q159 -55 240 -55q163 0 375 154v-221q-202 -138 -379 -138q-93 0 -184 31q-18 6 -71 25q-217 75 -333 75q-165 0 -385 -157zM20 0l256 936h1355l-249 -933h-514l158 566l-300 272l-238 -841h-468zM317 1072 l97 341h465l303 -288l73 288h505l-101 -341h-1342z" />
<glyph unicode="&#xd2;" d="M668 1913h252l168 -370h-129zM95 347q0 98 30 208l104 379h477l-141 -498q-10 -35 -10 -53q0 -40 37 -51h297q57 15 83 104l146 498l468 3l-9 -32q-31 -107 -112 -388q-50 -179 -157 -299q-193 -217 -517 -217h-244q-195 0 -311 73q-141 89 -141 273zM265 1070 q41 138 140 234q121 117 249 117h696q264 0 264 -280v-71h-1349z" />
<glyph unicode="&#xd4;" d="M417 1543l481 561h252l481 -561h-235l-371 371l-373 -371h-235zM95 347q0 98 30 208l104 379h477l-141 -498q-10 -35 -10 -53q0 -40 37 -51h297q57 15 83 104l146 498l468 3l-9 -32q-31 -107 -112 -388q-50 -179 -157 -299q-193 -217 -517 -217h-244q-195 0 -311 73 q-141 89 -141 273zM265 1070q41 138 140 234q121 117 249 117h696q264 0 264 -280v-71h-1349z" />
<glyph unicode="&#xd5;" d="M382 1543v221q213 143 387 143q117 0 291 -58q3 -1 4 -1l55 -19q159 -55 240 -55q163 0 375 154v-221q-202 -138 -379 -138q-93 0 -184 31q-18 6 -71 25q-217 75 -333 75q-165 0 -385 -157zM95 347q0 98 30 208l104 379h477l-141 -498q-10 -35 -10 -53q0 -40 37 -51h297 q57 15 83 104l146 498l468 3l-9 -32q-31 -107 -112 -388q-50 -179 -157 -299q-193 -217 -517 -217h-244q-195 0 -311 73q-141 89 -141 273zM265 1070q41 138 140 234q121 117 249 117h696q264 0 264 -280v-71h-1349z" />
<glyph unicode="&#xd6;" d="M812 1543v205h154v-205h-154zM1118 1543v205h154v-205h-154zM95 347q0 98 30 208l104 379h477l-141 -498q-10 -35 -10 -53q0 -40 37 -51h297q57 15 83 104l146 498l468 3l-9 -32q-31 -107 -112 -388q-50 -179 -157 -299q-193 -217 -517 -217h-244q-195 0 -311 73 q-141 89 -141 273zM265 1070q41 138 140 234q121 117 249 117h696q264 0 264 -280v-71h-1349z" />
<glyph unicode="&#xd7;" horiz-adv-x="789" d="M130 409l259 315l-258 314l100 122l258 -314l256 313l99 -121l-257 -313l258 -314l-100 -122l-258 314l-258 -315z" />
<glyph unicode="&#xd9;" horiz-adv-x="1513" d="M850 1913h252l168 -370h-129zM54 325q0 34 8 63l151 548l455 1l-145 -509q-10 -35 -10 -51q0 -41 41 -53h327l173 612h467l-259 -935l-749 -1q-352 0 -436 211q-23 58 -23 114zM242 1070l97 336h458l-93 -336h-462zM1086 1070l95 337l468 -1l-95 -336h-468z" />
<glyph unicode="&#xdb;" horiz-adv-x="1513" d="M598 1543l481 561h252l481 -561h-235l-371 371l-373 -371h-235zM54 325q0 34 8 63l151 548l455 1l-145 -509q-10 -35 -10 -51q0 -41 41 -53h327l173 612h467l-259 -935l-749 -1q-352 0 -436 211q-23 58 -23 114zM242 1070l97 336h458l-93 -336h-462zM1086 1070l95 337 l468 -1l-95 -336h-468z" />
<glyph unicode="&#xdc;" horiz-adv-x="1513" d="M993 1543v205h154v-205h-154zM1299 1543v205h154v-205h-154zM54 325q0 34 8 63l151 548l455 1l-145 -509q-10 -35 -10 -51q0 -41 41 -53h327l173 612h467l-259 -935l-749 -1q-352 0 -436 211q-23 58 -23 114zM242 1070l97 336h458l-93 -336h-462zM1086 1070l95 337 l468 -1l-95 -336h-468z" />
<glyph unicode="&#xe0;" horiz-adv-x="1573" d="M747 1913h252l168 -370h-129zM-316 3l733 936h1022l200 -936h-514l-139 557l-290 -1l-412 -557zM527 1070l294 343h517l73 -343h-884z" />
<glyph unicode="&#xe2;" horiz-adv-x="1573" d="M496 1543l481 561h252l481 -561h-235l-371 371l-373 -371h-235zM-316 3l733 936h1022l200 -936h-514l-139 557l-290 -1l-412 -557zM527 1070l294 343h517l73 -343h-884z" />
<glyph unicode="&#xe3;" horiz-adv-x="1573" d="M461 1543v221q213 143 387 143q117 0 291 -58q3 -1 4 -1l55 -19q159 -55 240 -55q163 0 375 154v-221q-202 -138 -379 -138q-93 0 -184 31q-18 6 -71 25q-217 75 -333 75q-165 0 -385 -157zM-316 3l733 936h1022l200 -936h-514l-139 557l-290 -1l-412 -557zM527 1070 l294 343h517l73 -343h-884z" />
<glyph unicode="&#xe4;" horiz-adv-x="1573" d="M891 1543v205h154v-205h-154zM1197 1543v205h154v-205h-154zM-316 3l733 936h1022l200 -936h-514l-139 557l-290 -1l-412 -557zM527 1070l294 343h517l73 -343h-884z" />
<glyph unicode="&#xe8;" horiz-adv-x="1473" d="M652 1913h252l168 -370h-129zM-4 3l250 933h1208l-99 -373h-664l-55 -193h661l-99 -367h-1202zM162 1070l220 343h1205l-91 -343h-1334z" />
<glyph unicode="&#xea;" horiz-adv-x="1473" d="M401 1543l481 561h252l481 -561h-235l-371 371l-373 -371h-235zM-4 3l250 933h1208l-99 -373h-664l-55 -193h661l-99 -367h-1202zM162 1070l220 343h1205l-91 -343h-1334z" />
<glyph unicode="&#xeb;" horiz-adv-x="1473" d="M796 1543v205h154v-205h-154zM1102 1543v205h154v-205h-154zM-4 3l250 933h1208l-99 -373h-664l-55 -193h661l-99 -367h-1202zM162 1070l220 343h1205l-91 -343h-1334z" />
<glyph unicode="&#xec;" horiz-adv-x="743" d="M292 1913h252l168 -370h-129zM-10 3l260 933h495l-257 -933h-498zM282 1070l98 343h489l-94 -343h-493z" />
<glyph unicode="&#xee;" horiz-adv-x="743" d="M41 1543l481 561h252l481 -561h-235l-371 371l-373 -371h-235zM-10 3l260 933h495l-257 -933h-498zM282 1070l98 343h489l-94 -343h-493z" />
<glyph unicode="&#xef;" horiz-adv-x="743" d="M436 1543v205h154v-205h-154zM742 1543v205h154v-205h-154zM-10 3l260 933h495l-257 -933h-498zM282 1070l98 343h489l-94 -343h-493z" />
<glyph unicode="&#xf1;" horiz-adv-x="1594" d="M395 1543v221q213 143 387 143q117 0 291 -58q3 -1 4 -1l55 -19q159 -55 240 -55q163 0 375 154v-221q-202 -138 -379 -138q-93 0 -184 31q-18 6 -71 25q-217 75 -333 75q-165 0 -385 -157zM20 0l256 936h1355l-249 -933h-514l158 566l-300 272l-238 -841h-468zM317 1072 l97 341h465l303 -288l73 288h505l-101 -341h-1342z" />
<glyph unicode="&#xf2;" d="M668 1913h252l168 -370h-129zM95 347q0 98 30 208l104 379h477l-141 -498q-10 -35 -10 -53q0 -40 37 -51h297q57 15 83 104l146 498l468 3l-9 -32q-31 -107 -112 -388q-50 -179 -157 -299q-193 -217 -517 -217h-244q-195 0 -311 73q-141 89 -141 273zM265 1070 q41 138 140 234q121 117 249 117h696q264 0 264 -280v-71h-1349z" />
<glyph unicode="&#xf4;" d="M417 1543l481 561h252l481 -561h-235l-371 371l-373 -371h-235zM95 347q0 98 30 208l104 379h477l-141 -498q-10 -35 -10 -53q0 -40 37 -51h297q57 15 83 104l146 498l468 3l-9 -32q-31 -107 -112 -388q-50 -179 -157 -299q-193 -217 -517 -217h-244q-195 0 -311 73 q-141 89 -141 273zM265 1070q41 138 140 234q121 117 249 117h696q264 0 264 -280v-71h-1349z" />
<glyph unicode="&#xf5;" d="M382 1543v221q213 143 387 143q117 0 291 -58q3 -1 4 -1l55 -19q159 -55 240 -55q163 0 375 154v-221q-202 -138 -379 -138q-93 0 -184 31q-18 6 -71 25q-217 75 -333 75q-165 0 -385 -157zM95 347q0 98 30 208l104 379h477l-141 -498q-10 -35 -10 -53q0 -40 37 -51h297 q57 15 83 104l146 498l468 3l-9 -32q-31 -107 -112 -388q-50 -179 -157 -299q-193 -217 -517 -217h-244q-195 0 -311 73q-141 89 -141 273zM265 1070q41 138 140 234q121 117 249 117h696q264 0 264 -280v-71h-1349z" />
<glyph unicode="&#xf6;" d="M812 1543v205h154v-205h-154zM1118 1543v205h154v-205h-154zM95 347q0 98 30 208l104 379h477l-141 -498q-10 -35 -10 -53q0 -40 37 -51h297q57 15 83 104l146 498l468 3l-9 -32q-31 -107 -112 -388q-50 -179 -157 -299q-193 -217 -517 -217h-244q-195 0 -311 73 q-141 89 -141 273zM265 1070q41 138 140 234q121 117 249 117h696q264 0 264 -280v-71h-1349z" />
<glyph unicode="&#xf7;" horiz-adv-x="987" d="M67 594l73 260h918l-73 -260h-918zM392 316l50 213l236 -3l-49 -210h-237zM462 920l53 205l237 1l-48 -204z" />
<glyph unicode="&#xf9;" horiz-adv-x="1513" d="M850 1913h252l168 -370h-129zM54 325q0 34 8 63l151 548l455 1l-145 -509q-10 -35 -10 -51q0 -41 41 -53h327l173 612h467l-259 -935l-749 -1q-352 0 -436 211q-23 58 -23 114zM242 1070l97 336h458l-93 -336h-462zM1086 1070l95 337l468 -1l-95 -336h-468z" />
<glyph unicode="&#xfb;" horiz-adv-x="1513" d="M598 1543l481 561h252l481 -561h-235l-371 371l-373 -371h-235zM54 325q0 34 8 63l151 548l455 1l-145 -509q-10 -35 -10 -51q0 -41 41 -53h327l173 612h467l-259 -935l-749 -1q-352 0 -436 211q-23 58 -23 114zM242 1070l97 336h458l-93 -336h-462zM1086 1070l95 337 l468 -1l-95 -336h-468z" />
<glyph unicode="&#xfc;" horiz-adv-x="1513" d="M993 1543v205h154v-205h-154zM1299 1543v205h154v-205h-154zM54 325q0 34 8 63l151 548l455 1l-145 -509q-10 -35 -10 -51q0 -41 41 -53h327l173 612h467l-259 -935l-749 -1q-352 0 -436 211q-23 58 -23 114zM242 1070l97 336h458l-93 -336h-462zM1086 1070l95 337 l468 -1l-95 -336h-468z" />
<glyph unicode="&#xff;" horiz-adv-x="1297" d="M692 1543v205h154v-205h-154zM998 1543v205h154v-205h-154zM157 3l189 668l-60 261l838 3l-249 -267l-183 -666zM178 1412h514l39 -159l151 166l681 -2l-310 -347h-1000z" />
<glyph unicode="&#x152;" horiz-adv-x="2971" d="M1494 3l250 933h1208l-99 -373h-664l-55 -193h661l-99 -367h-1202zM1660 1070l220 343h1205l-91 -343h-1334zM95 347q0 98 30 208l104 379h477l-141 -498q-10 -35 -10 -53q0 -40 37 -51h297q57 15 83 104l146 498l468 3l-9 -32q-31 -107 -112 -388q-50 -179 -157 -299 q-193 -217 -517 -217h-244q-195 0 -311 73q-141 89 -141 273zM265 1070q41 138 140 234q121 117 249 117h696q264 0 264 -280v-71h-1349z" />
<glyph unicode="&#x153;" horiz-adv-x="2971" d="M1494 3l250 933h1208l-99 -373h-664l-55 -193h661l-99 -367h-1202zM1660 1070l220 343h1205l-91 -343h-1334zM95 347q0 98 30 208l104 379h477l-141 -498q-10 -35 -10 -53q0 -40 37 -51h297q57 15 83 104l146 498l468 3l-9 -32q-31 -107 -112 -388q-50 -179 -157 -299 q-193 -217 -517 -217h-244q-195 0 -311 73q-141 89 -141 273zM265 1070q41 138 140 234q121 117 249 117h696q264 0 264 -280v-71h-1349z" />
<glyph unicode="&#x178;" horiz-adv-x="1341" d="M692 1543v205h154v-205h-154zM998 1543v205h154v-205h-154zM157 3l189 668l-60 261l838 3l-249 -267l-183 -666zM178 1412h514l39 -159l151 166l681 -2l-310 -347h-1000z" />
<glyph unicode="&#x2c6;" horiz-adv-x="2048" d="M416 899l481 561h252l481 -561h-235l-371 371l-373 -371h-235z" />
<glyph unicode="&#x2dc;" horiz-adv-x="582" d="M-620 122v221q213 143 387 143q117 0 291 -58q3 -1 4 -1l55 -19q159 -55 240 -55q163 0 375 154v-221q-202 -138 -379 -138q-93 0 -184 31q-18 6 -71 25q-217 75 -333 75q-165 0 -385 -157z" />
<glyph unicode="&#x2000;" horiz-adv-x="1052" />
<glyph unicode="&#x2001;" horiz-adv-x="2104" />
<glyph unicode="&#x2002;" horiz-adv-x="1052" />
<glyph unicode="&#x2003;" horiz-adv-x="2104" />
<glyph unicode="&#x2004;" horiz-adv-x="701" />
<glyph unicode="&#x2005;" horiz-adv-x="526" />
<glyph unicode="&#x2006;" horiz-adv-x="350" />
<glyph unicode="&#x2007;" horiz-adv-x="350" />
<glyph unicode="&#x2008;" horiz-adv-x="263" />
<glyph unicode="&#x2009;" horiz-adv-x="420" />
<glyph unicode="&#x200a;" horiz-adv-x="116" />
<glyph unicode="&#x2010;" horiz-adv-x="1137" d="M87 500l73 260h918l-73 -260h-918z" />
<glyph unicode="&#x2011;" horiz-adv-x="1137" d="M87 500l73 260h918l-73 -260h-918z" />
<glyph unicode="&#x2012;" horiz-adv-x="1137" d="M87 500l73 260h918l-73 -260h-918z" />
<glyph unicode="&#x2013;" horiz-adv-x="1024" d="M204 512v204h616v-204h-616z" />
<glyph unicode="&#x2014;" horiz-adv-x="2048" d="M204 512v204h1640v-204h-1640z" />
<glyph unicode="&#x2018;" horiz-adv-x="492" d="M180 879l216 561h363l-217 -561h-362z" />
<glyph unicode="&#x2019;" horiz-adv-x="492" d="M180 879l216 561h363l-217 -561h-362z" />
<glyph unicode="&#x201c;" horiz-adv-x="1034" d="M155 879l216 561h363l-217 -561h-362zM617 879l217 561h363l-217 -561h-363z" />
<glyph unicode="&#x201d;" horiz-adv-x="1034" d="M155 879l216 561h363l-217 -561h-362zM617 879l217 561h363l-217 -561h-363z" />
<glyph unicode="&#x201e;" horiz-adv-x="920" d="M-55 -284l16 96q161 24 193 188h-154l51 272h283l-47 -249q-26 -136 -114 -218q-92 -86 -228 -89zM332 -284l16 96q163 24 193 188h-156l53 272h283l-47 -249q-26 -136 -114 -218q-92 -86 -228 -89z" />
<glyph unicode="&#x2026;" horiz-adv-x="1845" d="M1333 0l85 299h312l-84 -299h-313zM718 0l85 299h312l-84 -299h-313zM103 0l85 299h312l-84 -299h-313z" />
<glyph unicode="&#x202f;" horiz-adv-x="420" />
<glyph unicode="&#x2039;" horiz-adv-x="1706" d="M264 512v199l1178 483v-219l-893 -365l893 -364v-219z" />
<glyph unicode="&#x203a;" horiz-adv-x="1706" d="M264 27v219l895 364l-895 365v219l1178 -483v-199z" />
<glyph unicode="&#x205f;" horiz-adv-x="526" />
<glyph unicode="&#x2122;" horiz-adv-x="1706" d="M207 1350v112h485v-112h-168v-435h-149v435h-168zM803 915v547h196l127 -332l123 332h197v-547h-135v410l-154 -410h-61l-158 410v-410h-135z" />
<glyph unicode="&#xe000;" horiz-adv-x="1410" d="M0 1410h1410v-1410h-1410v1410z" />
<glyph unicode="&#xfb01;" horiz-adv-x="2136" d="M1383 3l260 933h495l-257 -933h-498zM1675 1070l98 343h489l-94 -343h-493zM-26 3l260 933h1202l-113 -374h-658l-153 -559h-538zM136 1070l218 343h1208l-98 -343h-1328z" />
<glyph unicode="&#xfb02;" horiz-adv-x="2623" d="M1381 3l264 933h497l-164 -583l685 -2l-286 -348h-996zM1680 1072l94 338l503 3l-101 -341h-496zM-26 3l260 933h1202l-113 -374h-658l-153 -559h-538zM136 1070l218 343h1208l-98 -343h-1328z" />
<glyph unicode="&#xfb03;" horiz-adv-x="3529" d="M2776 3l260 933h495l-257 -933h-498zM3068 1070l98 343h489l-94 -343h-493zM1367 3l260 933h1202l-113 -374h-658l-153 -559h-538zM1529 1070l218 343h1208l-98 -343h-1328zM-26 3l260 933h1202l-113 -374h-658l-153 -559h-538zM136 1070l218 343h1208l-98 -343h-1328z " />
<glyph unicode="&#xfb04;" horiz-adv-x="4016" d="M2774 3l264 933h497l-164 -583l685 -2l-286 -348h-996zM3073 1072l94 338l503 3l-101 -341h-496zM1367 3l260 933h1202l-113 -374h-658l-153 -559h-538zM1529 1070l218 343h1208l-98 -343h-1328zM-26 3l260 933h1202l-113 -374h-658l-153 -559h-538zM136 1070l218 343 h1208l-98 -343h-1328z" />
</font>
</defs>
</svg>
